<?xml version="1.0" encoding="UTF-8" standalone="no"?>
<svg
   viewBox="0 0 14.257525 8.3400679"
   version="1.1"
   id="svg2"
   width="14.257525"
   height="8.3400679"
   xmlns="http://www.w3.org/2000/svg"
   xmlns:svg="http://www.w3.org/2000/svg">
  <defs
     id="defs2" />
  <g
     transform="matrix(0.022727,0,0,0.022727,-4.1417059,-7.463559)"
     id="g2">
    <path
       fill="#7c7b7c"
       transform="scale(0.96875,0.968807)"
       d="m 358.783,339.235 c 5.961,-0.85 14.459,0.478 20.064,2.527 12.748,4.659 20.162,13.344 25.591,25.525 9.634,21.612 19.056,43.401 28.674,65.02 l 62.109,139.187 28.065,62.498 c 4.699,10.457 10.532,22.78 14.217,33.542 2.167,6.326 0.577,18.415 -1.789,24.807 -3.581,9.745 -10.953,17.625 -20.437,21.846 -9.016,4.016 -20.612,4.601 -29.878,1.103 -20.477,-7.73 -28.019,-31.443 -36.066,-49.928 l -15.483,-35.281 -66.216,0.064 -75.61,0.053 c -3.167,8.751 -8.854,20.935 -12.775,29.665 -6.53,14.332 -11.794,28.79 -20.66,41.898 -12.227,18.078 -37.658,20.943 -54.811,8.033 -8.481,-6.317 -14.009,-15.827 -15.302,-26.323 -2.045,-15.421 5.025,-27.776 10.969,-41.461 4.088,-9.411 8.339,-18.77 12.515,-28.143 13.641,-31.005 27.47,-61.926 41.485,-92.764 l 50.777,-114.27 c 4.575,-10.191 9.411,-20.791 13.725,-31.075 8.746,-20.851 17.123,-33.527 40.836,-36.523 z m -32.006,213.214 36.998,0.042 c 11.937,-0.101 23.874,-0.122 35.811,-0.064 -3.766,-8.983 -34.498,-80.37 -36.97,-82.67 -10.97,26.643 -25.825,56.01 -35.839,82.692 z"
       id="path1" />
    <path
       fill="#7c7b7c"
       transform="scale(0.96875,0.968807)"
       d="m 695.136,339.29 2.21,-0.057 c 18.392,-0.4 37.921,0.116 56.663,0.069 16.824,-0.042 37.495,-1.116 53.861,1.381 6.34,1.503 12.264,5.722 16.856,9.938 20.846,19.142 10.499,61.628 -18.622,65.824 -17.403,2.508 -36.331,1.08 -54.286,1.067 l -104.22,0.28 0.074,72.457 69.38,-0.037 c 13.081,-0.071 34.279,-1.179 46.448,1.232 28.89,5.722 38.309,45.699 17.739,65.915 -13.106,12.882 -28.097,11.158 -45.074,11.145 l -28.706,-0.058 -59.837,0.027 -0.011,73.251 c 0.003,13.951 0.953,29.426 -1.223,43.091 -7.189,45.142 -71.254,42.609 -77.941,-1.371 -1.341,-8.82 -0.575,-19.824 -0.572,-28.872 l -0.011,-54.832 -0.04,-131.298 c -0.009,-26.884 0.314,-53.901 -0.306,-80.771 -0.318,-13.805 0.756,-26.412 10.818,-36.717 4.942,-5.128 11.27,-8.705 18.212,-10.294 8.172,-1.9 27.518,-1.206 36.929,-1.212 z"
       id="path2" />
  </g>
</svg>
