<?xml version="1.0" encoding="UTF-8" standalone="no"?>
<svg
   viewBox="0 0 12.378447 10.505597"
   version="1.1"
   id="svg3"
   width="12.378447"
   height="10.505597"
   xmlns="http://www.w3.org/2000/svg"
   xmlns:svg="http://www.w3.org/2000/svg">
  <defs
     id="defs3" />
  <g
     transform="matrix(0.25,0,0,0.25,-4.0270067,-6.7370531)"
     id="g3">
    <path
       fill="#515052"
       d="m 34.5265,27.1019 c 0.1411,-0.0318 0.2629,-0.0514 0.4063,-0.063 8.4744,-0.6831 15.9971,2.48 20.5307,9.9257 3.3639,5.5245 2.9492,11.5185 2.9692,17.7247 0.015,4.6478 -0.1343,9.4455 0.0759,14.1075 -1.6465,-0.0592 -3.3993,-0.0627 -5.0547,-0.0914 -0.1431,-1.5311 -0.3854,-8.5838 -0.2271,-9.7173 -2.612,1.4972 -5.004,2.4635 -7.8669,3.389 3.6021,-3.9334 6.4157,-5.5178 7.3602,-11.5024 1.4755,-9.3492 -4.2334,-17.0267 -13.4899,-18.6041 -5.3067,-0.2995 -10.1963,1.2635 -13.7218,5.4199 -2.8262,3.3844 -4.2136,7.7415 -3.8647,12.1369 0.3783,4.5642 2.7865,10.5816 5.9785,13.826 1.7419,1.7706 4.111,3.6316 6.0528,5.2755 -3.8573,-1.0078 -6.5047,-2.0086 -9.7562,-4.4944 -8.8531,-6.7682 -10.448,-20.9243 -3.4074,-29.6582 3.4568,-4.3301 8.5048,-7.0942 14.0151,-7.6744 z"
       id="path1" />
    <path
       fill="#515052"
       d="m 35.4069,34.0288 0.3565,0.0616 0.1542,0.367 c -0.5752,1.0419 -3.1318,3.245 -4.0526,4.5764 -2.3958,3.3852 -3.2063,8.039 -2.4631,12.0763 1.1994,6.515 6.8616,11.9489 13.516,12.5478 3.0494,0.2745 5.2127,-0.1632 8.1563,-0.6983 -0.0474,1.9875 -0.2394,3.7818 -0.4398,5.7556 l -3.5775,0.0193 C 41.8047,68.7895 38.7394,68.9585 33.98,66.3114 23.3847,60.4183 18.2865,42.3375 30.7155,35.6079 32.151,34.8307 33.833,34.4371 35.4069,34.0288 Z"
       id="path2" />
    <path
       fill="#515052"
       d="m 49.0035,27.2058 c 3.4925,0.2791 8.2702,3.2679 10.6458,5.7098 5.0727,5.2143 5.9767,10.4913 5.9725,17.4128 -0.0037,6.1264 -0.0092,12.2569 -0.0677,18.4008 -1.9161,-0.0055 -3.05,0.0055 -4.9725,0.2414 -0.0381,-4.9642 -0.0414,-9.9285 -0.0101,-14.8927 0.0082,-7.9219 0.2682,-12.231 -4.1377,-19.2383 -1.9694,-3.1322 -6.2524,-5.3789 -7.4303,-7.6338 z"
       id="path3" />
  </g>
</svg>
