<?xml version="1.0" encoding="UTF-8" standalone="no"?>
<svg
   role="img"
   viewBox="0 0 24.000002 24"
   version="1.1"
   id="svg1"
   width="24.000002"
   height="24"
   xmlns="http://www.w3.org/2000/svg"
   xmlns:svg="http://www.w3.org/2000/svg">
  <defs
     id="defs1" />
  <title
     id="title1">DeepMind</title>
  <path
     d="M 5.99,1.62 A 8.54,8.54 0 0 0 3.45,8.45 c 0.35,4.4 4.51,7.99 8.28,7.99 3.5,0 4.88,-3.06 4.54,-5.14 A 4.32,4.32 0 0 0 15.32,9.23 c 0.63,0.34 1.24,0.77 1.81,1.3 1.52,1.41 2.44,3.23 2.58,5.1 C 20.04,19.76 16.98,24 11.86,24 10.17,24 8.38,23.57 6.88,22.86 2.82,20.94 0,16.8 0,12 0,7.57 2.41,3.7 5.99,1.62 Z M 12.14,0 c 1.69,0 3.48,0.43 4.98,1.14 A 12,12 0 0 1 24,12 c 0,4.43 -2.41,8.3 -5.99,10.38 a 8.54,8.54 0 0 0 2.54,-6.83 c -0.35,-4.4 -4.51,-7.99 -8.28,-7.99 -3.5,0 -4.88,3.06 -4.54,5.14 a 4.3,4.3 0 0 0 0.96,2.07 8.72,8.72 0 0 1 -1.81,-1.3 C 5.36,12.06 4.44,10.24 4.29,8.37 3.96,4.24 7.02,0 12.14,0 Z"
     id="path1" />
</svg>
