<?xml version="1.0" encoding="UTF-8" standalone="no"?>
<svg
   version="1.1"
   viewBox="0 0 17.501953 19.482227"
   id="svg5172"
   width="17.501953"
   height="19.482227"
   xmlns="http://www.w3.org/2000/svg"
   xmlns:svg="http://www.w3.org/2000/svg">
  <defs
     id="defs2" />
  <g
     transform="matrix(0.24,0,0,0.24,0.21636303,-2.872565)"
     id="g2">
    <g
       transform="matrix(4.419685,0,0,-4.419685,30.111417,30.111417)"
       id="g1">
      <path
         d="m 0,0 c 0,0 0.152,-0.15 0.202,-0.253 0.1,-0.199 0.1,-0.326 0.1,-0.551 V -5.911 C 0,-6.061 -0.251,-6.237 -0.452,-6.44 -0.729,-6.742 -1.031,-7.242 -0.98,-7.798 l 0.049,-0.076 c 0,0 0.428,0.705 1.057,1.007 0.353,0.176 0.806,0.252 0.956,0.277 v 5.987 c 0,0.326 -0.076,0.578 -0.202,0.855 C 0.805,0.427 0.504,0.628 0.504,0.628 Z m 3.547,0.779 c 0,0 0.427,-0.201 1.383,-0.177 0.729,0.026 1.585,0.302 1.911,0.454 l 0.025,0.051 c -0.551,0 -1.257,0.15 -1.81,0.301 C 4.578,1.56 4.126,1.836 3.924,1.935 L 3.547,1.684 Z m -7.697,0.328 -0.075,0.05 c -1.358,-1.359 -2.514,-3.849 -2.514,-6.514 0,-4.151 2.589,-7.144 5.557,-8.2 2.39,-0.855 4.552,-0.227 4.981,-0.075 l 0.075,0.1 c -1.107,-0.075 -3.748,0.1 -5.332,0.981 -1.887,1.056 -2.868,2.138 -3.697,3.899 -0.68,1.433 -0.831,3.698 -0.604,5.256 0.452,2.992 1.609,4.503 1.609,4.503 M 3.773,3.873 3.748,3.772 c -1.057,0 -2.49,-0.125 -3.999,-1.157 -2.012,-1.383 -3.194,-3.898 -3.219,-6.288 -0.025,-3.569 2.012,-5.91 2.591,-6.16 -0.227,0.451 -0.404,1.257 -0.404,1.91 0,1.282 0.906,1.987 1.359,2.187 v 4.728 c 0,0.253 0.025,0.405 -0.076,0.655 -0.075,0.203 -0.301,0.303 -0.301,0.303 V 0 L 1.032,1.61 C 1.963,1.585 2.893,1.735 3.396,1.987 4.05,2.314 5.106,3.899 5.106,3.899 5.861,3.269 6.363,2.917 7.421,2.867 8.425,2.816 9.105,3.52 9.357,4.049 L 9.483,3.998 C 9.155,2.464 8.402,1.308 6.691,0.704 4.754,0.024 3.547,0.503 3.547,0.503 v -7.496 c 0,-0.352 0.025,-0.678 -0.177,-0.881 -0.376,-0.35 -1.281,0.126 -2.112,-0.123 -0.83,-0.254 -1.885,-1.232 -1.81,-2.063 0,0 1.383,-1.057 4.149,-1.057 2.163,0 3.219,0.654 4.553,1.685 l 0.101,-0.076 c -1.283,-3.144 -3.975,-4.754 -6.918,-4.754 -4.326,0 -8.35,3.674 -8.35,8.93 0,4.729 3.42,8.5 7.169,9.231 2.489,0.478 3.621,-0.026 3.621,-0.026"
         style="fill:#000000;fill-opacity:1;fill-rule:nonzero;stroke:none"
         id="path1" />
    </g>
  </g>
</svg>
