<?xml version="1.0" encoding="UTF-8" standalone="no"?>
<svg
   viewBox="0 0 23.546276 18.449625"
   version="1.1"
   id="svg3"
   width="23.546276"
   height="18.449625"
   xmlns="http://www.w3.org/2000/svg"
   xmlns:svg="http://www.w3.org/2000/svg">
  <defs
     id="defs3" />
  <g
     transform="matrix(0.009077,0,0,0.009077,-0.26512251,-0.38896137)"
     id="g3">
    <path
       d="m 1527.15,44.0879 c 7.4,-2.2989 86.15,-0.8224 99.06,-0.1032 22.55,1.2564 45.87,3.262 68.12,6.3286 82.72,11.3955 161.99,40.3279 231.46,76.8717 27.66,14.545 53.18,28.521 72.57,50.368 12.49,14.072 23.81,29.103 34.25,44.17 24.51,35.356 45.87,72.229 66.38,109.112 8.5,15.292 18.99,31.694 24.44,47.77 1.62,4.778 2.69,9.546 1.44,14.459 -2.57,10.111 -56.99,32.963 -70.52,39.909 37.15,16.402 73.11,32.592 106.84,53.226 337.68,206.553 483.24,568.061 459.61,895.691 -7.79,105.74 -34.48,207.68 -60.15,311.53 -28.94,117.05 -57.32,235.32 -104.57,348.93 -2.78,6.67 -14.31,18.41 -19.72,24.03 -12.52,3.48 -24.14,8.87 -38.44,9.04 -5.72,-2.83 -18.35,-4.64 -21.42,-6.46 -18.7,-11.08 -51.05,-32.45 -63.98,-47.35 -32.37,-37.33 -55.79,-82.31 -68.34,-126.23 -6.08,-21.25 -9.89,-42.73 -17.87,-63.62 -12.2,-32.16 -33.22,-71.32 -55.91,-99.76 -29.81,-37.61 -68.24,-70.52 -113.33,-97.04 -8.72,-5.21 -18.96,-10.05 -28.1,-15.18 -15.05,-8.45 -31.79,-20.06 -47.12,-27.72 -24.21,-12.06 -53.52,-23.04 -75.54,-37.53 -77.62,-51.07 -134.41,-121.67 -155.65,-199.87 -3.02,-11.13 -5.28,-24.24 -9.12,-35.01 l -0.43,-1.17 c 19.51,-21.32 77.31,-37.81 108.1,-46.36 l 0.56,0.14 c 5.28,-1.42 22.56,-4.65 24.68,-7.07 -1.9,-2.39 -4.57,-4.12 -7.7,-5.43 -35.11,-14.58 -71.96,-29.34 -104.43,-47.31 -42.79,-23.69 -77.87,-53.43 -114.62,-82.33 -6.07,-4.77 -10.5,-5.03 -19.09,-3.93 -41.22,5.33 -83,8.16 -124.49,11.95 -7.52,0.69 -16.92,-0.1 -25.19,0.43 -9.45,5.78 -35.29,2.52 -48.19,3.18 -28.09,1.44 -56.28,3.53 -84.43,4.46 -12.18,0.4 -24.39,-0.07 -36.57,0.37 -20.36,0.73 -40.57,2.21 -60.98,2.53 -55.83,0.88 -111.71,-0.31 -167.53,0.61 -4.53,0.07 -7.4,0.17 -11.69,-1.19 -2.06,-0.65 -3.44,-1.22 -5.73,-1.34 -22.94,-1.24 -46.15,-0.37 -69.138,-1.04 -26.996,-0.79 -54.31,-3.21 -81.29,-4.69 -24.629,-1.35 -49.592,-1.26 -74.173,-3.07 -207.433,-15.26 -414.629,-43.18 -613.602,-92.48 -31.618,-7.83 -66.976,-13.81 -96.031,-26.61 -12.667,-5.58 -25.626,-15.59 -36.0138,-23.545 -11.6319,-8.906 -50.7741,-39.84 -57.0383,-49.205 -5.202,-7.777 -7.3583,-17.437 -7.3151,-26.223 0.041,-8.323 5.8132,-39.709 13.864,-44.485 0.3297,-0.196 2.6263,-1.146 3.3083,-1.123 6.6428,0.228 41.8965,24.837 49.8283,29.021 24.3726,12.856 52.0676,26.885 80.0966,34.062 3.774,0.967 7.776,1.02 11.509,1.948 20.833,5.176 42.738,11.661 64.764,13.19 21.26,1.475 52.655,-13.412 68.546,-24.504 4.073,-2.843 6.434,-5.729 6.51,-10.111 0.484,-27.939 -100.322,-107.302 -128.962,-124.74 -23.772,-14.474 -47.846,-25.536 -75.566,-34.727 -17.831,-5.912 -36.314,-11.26 -55.8564,-11.892 -7.3394,-0.237 -19.39,1.204 -26.1054,-0.391 -2.4539,-0.583 -4.8406,-2.715 -6.6479,-4.097 -1.4497,-3.649 -3.7885,-16.219 -2.0076,-19.655 7.1255,-13.746 30.0268,-40.646 42.4916,-50.51 6.7796,-5.365 32.9837,-19.561 41.2207,-24.102 l 69.011,-37.507 c 23.19,-12.624 46.384,-25.967 69.942,-38.147 48.575,-24.728 97.565,-48.948 146.956,-72.652 20.725,-10.107 40.513,-20.687 61.672,-30.707 52.173,-24.261 105.396,-47.087 159.578,-68.438 86.091,-33.357 175.415,-61.258 267.127,-83.438 55.672,-12.678 112.002,-23.481 168.842,-32.379 26.45,-4.119 53.39,-7.126 79.96,-10.629 26.51,-3.495 65.43,-3.452 88.47,-13.269 24.04,-10.243 46.4,-33.733 64.83,-50.17 l 65.44,-59.179 c 13.79,-12.509 33.01,-26.426 45.22,-38.753 29.33,-29.6571 56.91,-56.5264 105.42,-66.6786 7.9,-1.6545 9.56,1.566 18.48,-2.1765 z M 2449.54,1185.6 c 24.36,-18.5 50.66,-80.47 53.54,-106.61 l -1.07,-0.9 c -3.81,3.42 -6.02,13.46 -8.59,18.75 -9.85,20.2 -25.64,43.67 -46.55,58.03 -6.49,4.45 -8.22,3.37 -13.57,10.12 -6.83,2.8 -27.42,17.93 -32.74,18.38 -16.44,-2.86 -25.77,-32.29 -33.01,-42.79 -11.88,-17.24 -19.93,-35.6 -32.62,-52.41 -16.86,-17.8 -66.09,-38.75 -89.71,-53.27 -17.94,-8.18 -46.93,-29.54 -66.76,-32.82 -40.08,-6.63 -80.18,-11.183 -120.15,-16.771 -36.32,-5.079 -54.67,-7.396 -91.19,-2.735 -19.57,2.497 -46.24,2.9 -66.76,4.32 -105.65,7.133 -210.89,17.676 -315.44,31.596 -48.37,6.2 -97.54,15.29 -145.65,20.33 -23.51,2.58 -47.14,4.58 -70.81,5.98 -11.13,0.58 -28.61,-0.08 -39.34,1.15 -0.37,0.05 -2.57,1.76 -3.92,1.83 -8.22,0.37 -17.82,0.05 -25.96,0.13 -44.35,0.43 -88.51,0.51 -132.8,-1.7 -10.61,-0.53 -23.72,0.16 -34.55,-0.57 -1.64,-0.11 -4.83,-1.84 -6.24,-2.56 -18.23,0.27 -77.89,1.49 -90.63,-6.75 -2.09,-3.33 -3.36,-6.57 -2.02,-10.28 3.41,-9.41 145.29,-60.081 165.19,-71.412 19.7,-11.249 36.34,-25.495 48.94,-41.897 12.3,-16.09 22.47,-35.479 26.98,-53.938 1.98,-8.141 0.03,-12.173 3.54,-21.495 l 0.4,-1.039 c -3.5,-8.646 -3.55,-16.022 -6.58,-24.368 -10.65,-29.209 -29.83,-51.864 -69.31,-58.921 -50.18,-8.967 -84.7,4.432 -125.73,25.871 -75.32,38.668 -384.043,199.075 -385.318,265.469 9.627,8.21 267.025,24.41 301.634,26.96 15.744,1.16 39.704,2.3 56.264,3.94 22.53,0.24 39.66,0.67 61.93,2.66 24.14,2.15 51.29,0.28 75.82,3.07 35.73,0.7 71.13,0.43 107,0.54 18.92,-0.95 42.5,2.01 60.2,-1.62 11.59,-2.38 23.09,-1.34 35.28,-2.36 67.56,-5.63 133.6,-18.08 200.48,-26.51 114.66,-15.03 230.16,-25.71 346.12,-32.01 19.08,-1.04 46.13,-6.17 64.57,-5.54 49.21,1.67 103.94,11.41 152.91,16.7 37.18,4.01 66.79,28.27 96.92,43.84 15.04,7.97 31.59,16.9 46.27,25.21 17.1,9.69 28.56,34.54 37.4,49.89 9.42,16.74 19.57,33.22 30.41,49.42 9.63,14.55 22.52,39.4 47.76,24.8 7.76,-4.49 33.98,-30.89 37.46,-37.71 z M 656.164,528.709 c 21.371,0.119 37.146,-5.794 56.83,-10.783 20.786,-5.268 42.642,-12.107 63.204,-16.931 185.53,-43.522 375.612,-60.139 568.812,-54.774 4.81,0.134 6.6,3.345 11.52,2.921 9.49,0.327 19.34,0.11 28.73,0.573 31.06,1.717 62.06,4.107 92.96,7.166 9.16,0.972 73.35,7.706 79.8,9.837 2.51,0.755 18.13,2.82 21.93,3.407 38.74,5.962 77.51,12.886 115.64,20.92 102.44,22.278 202.28,51.414 298.44,87.091 29.1,10.798 57.2,23.363 86.95,32.706 7.74,2.428 18.73,-2.634 21.91,-8.683 12.41,-23.473 -47.24,-39.704 -66.07,-49.91 -9.73,-5.279 -23.17,-12.305 -33.3,-16.919 -114.42,-51.623 -236.96,-91.147 -364.47,-117.553 -91.37,-19.673 -193.53,-32.14 -288.22,-36.126 -28.12,-1.183 -50.91,0.271 -80.07,-2.83 -13.5,4.833 -67.84,1.487 -86.26,2.688 -175.78,11.462 -349.193,42.497 -509.667,101.162 -37.261,13.621 -44.059,18.078 -18.669,46.038 z m -34.28,473.751 c 6.154,-15.095 4.613,-33.019 10.386,-46.012 2.673,-6.016 36.002,-17.587 45.381,-22.14 37.498,-18.205 77.016,-41.518 109.072,-65.173 36.529,-26.954 60.39,-79.398 61.391,-118.553 0.307,-12.018 0.736,-30.435 -1.362,-42.268 -5.955,-33.595 -23.934,-69.996 -53.148,-95.339 -15.046,-13.051 -53.307,-33.125 -75.426,-33.007 -21.204,0.112 -80.096,29.958 -95.105,42.894 -2.561,2.047 -0.813,7.447 0.317,9.876 21.482,46.154 48.576,93.006 58.565,141.783 8.285,40.456 -5.817,98.16 -38.352,130.918 -33.888,34.122 -100.133,54.129 -153.204,59.943 -8.036,0.837 -20.222,2.155 -26.736,-1.749 -5.241,-8.021 1.203,-33.86 0.274,-44.479 -2.28,-26.045 -9.574,-43.099 -32.598,-62.032 -4.355,-3.58 -7.927,-9.038 -13.173,-12.933 l -0.878,0.331 c 0.611,5.049 4.105,12.327 6.224,16.988 17.309,38.075 4.91,77.064 -30.124,106.076 -3.362,2.784 -8.917,5.385 -12.8,8.236 -7.4,4.548 -9.78,5.528 -17.009,9.009 -7.247,3.489 -29.727,8.774 -32.903,11.818 3.293,4.183 24.692,7.603 32.124,9.463 3.475,-0.42 4.812,-0.79 8.148,-0.02 31.064,7.22 59.602,10.34 91.939,11.31 11.102,0.34 23.18,2.49 36.084,2.24 32.496,-0.64 70.307,2.9 101.877,-3.91 5.633,-1.22 16.871,-10.06 21.036,-13.27 z m 1650.026,222.5 c 9.21,0.12 23.32,0.71 31.95,-0.5 5.19,-4.14 -7.16,-16.79 -10.33,-21.52 -3.62,-2.88 -6.3,-11.67 -8.56,-13.96 -14.71,-14.92 -28.42,-30.92 -47.53,-42.47 -27.82,-16.81 -53.15,-23.85 -86.45,-31.14 -62.08,-13.88 -126.68,-19.43 -191.09,-16.4 -0.85,1.03 -3.26,3.23 -2.53,4.13 11.93,14.66 19.4,28.51 25.45,45.42 11.5,32.1 5.5,65.99 8.66,98.57 5.77,2.27 18.28,-2.2 24.93,-3.35 55.46,-9.61 114.65,-10.43 171.17,-14.39 27.43,-1.93 57.61,-4.88 84.33,-4.39 z M 333.402,747.232 c 6.133,-0.667 7.638,-3.548 13.759,-5.925 60.789,-23.603 40.722,-119.225 -32.004,-114.281 -24.528,9.343 -36.252,12.042 -46.483,35.059 -8.093,18.643 -6.631,39.039 4.074,56.845 13.848,22.568 29.995,28.982 60.654,28.302 z"
       id="path1" />
    <path
       fill="#cecece"
       fill-opacity="0.0196078"
       d="m 2433.3,1164.99 c 5.35,-6.75 7.08,-5.67 13.57,-10.12 20.91,-14.36 36.7,-37.83 46.55,-58.03 2.57,-5.29 4.78,-15.33 8.59,-18.75 l 1.07,0.9 c -2.88,26.14 -29.18,88.11 -53.54,106.61 0.47,-7.7 0.55,-9.57 3.14,-16.81 -7.88,-4.05 -13.53,-1.22 -19.38,-3.8 z"
       id="path2" />
    <path
       fill="#cecece"
       fill-opacity="0.0235294"
       d="m 362.8,1006.11 c -7.432,-1.86 -28.831,-5.28 -32.124,-9.463 3.176,-3.044 25.656,-8.329 32.903,-11.818 7.229,-3.481 9.609,-4.461 17.009,-9.009 -0.533,2.677 -0.946,4.997 -1.816,7.637 -6.151,3.375 -9.638,4.831 -14.536,9.362 l 0.165,0.588 -0.653,1.208 c -3.134,5.895 -3.682,5.915 -0.948,11.495 z"
       id="path3" />
  </g>
</svg>
