<?xml version='1.0' encoding='utf-8'?>
<svg xmlns="http://www.w3.org/2000/svg" viewBox="0 0 24 24" version="1.1" id="svg7">
  <g transform="translate(0.000000,2.492352)scale(1.000016)"><defs id="defs1" />
  <g transform="scale(0.024096)" id="g1">
    <defs id="defs7" />
    <path fill="#c9ceee" d="m 457.052,78.64911 c 11.864,-14.261 29.703,-26.1089 44.729,-38.4364 11.346,-9.3084 31.542,-26.5071 44.099,-34.43502 2.957,-1.86684 25.786,-4.57573 30.262,-4.98156 C 581.915,0.27402 587.709,0.00838 593.506,0 c 11.729,0.0798 23.375,1.36371 35.075,1.77248 8.096,0.28282 16.319,-0.38991 24.376,0.107 1.342,0.08271 3.186,0.18058 4.293,0.99218 1.428,1.0473 0.665,2.25562 1.384,3.09199 0.931,1.08319 11.933,0.81587 13.921,1.1066 2.386,0.34886 4.805,1.21346 7.09,1.97446 6.58,2.1913 13.021,5.0103 19.628,7.0542 3.347,1.0355 6.924,1.1865 10.288,2.1587 8.575,2.4781 17.989,7.3851 25.456,12.2685 6.824,4.463 12.7,10.1245 19.299,14.8654 4.981,3.5783 11.365,5.5146 15.56,10.0914 6.629,7.2345 18.029,26.8362 23.477,35.8256 4.786,7.8983 8.774,15.7773 12.918,24.0143 2.088,4.15 4.61,8.259 6.15,12.652 1.218,3.476 1.89,6.964 2.18,10.635 0.592,7.467 0.204,15.225 0.102,22.72 10.204,5.593 21.543,11.835 31.525,17.638 2.285,1.328 15.436,11.984 18.027,14.287 5.297,4.707 17.964,13.202 22.372,17.643 7.228,7.284 17.54,20.655 24.351,28.965 16.413,20.024 34.163,39.886 47.148,62.328 4.954,8.562 10.284,22.725 13.944,32.074 1.902,4.859 7.074,15.694 8.014,19.499 2.864,11.597 7.359,22.067 10.274,33.39 2.254,8.756 2.393,18.014 5.642,26.854 v 161.12 c -1.608,2.898 -2.293,8.681 -3.236,12.067 -4.587,16.474 -6.937,33.367 -11.804,49.792 -1.267,4.274 -1.468,9.645 -2.791,13.972 -3.887,12.696 -7.219,25.365 -10.364,38.268 -1.055,4.329 -0.811,10.854 -1.976,14.989 -1.725,6.127 -3.825,12.491 -5.761,18.577 -1.295,4.071 -2.776,11.293 -4.298,14.802 -5.343,12.309 -12.352,25.834 -14.005,39.289 -4.74,4.632 -6.86,6.475 -10.275,12.251 h -56.43 c -3.833,-4.013 -8.24,-6.653 -12.917,-10.006 -16.006,-11.479 -25.528,-29.448 -32.934,-47.207 -1.395,-3.346 -1.609,-8.826 -2.998,-12.355 -4.731,-12.016 -6.538,-24.914 -12.565,-36.435 -2.513,-4.803 -7.168,-8.924 -10.18,-13.434 -4.25,-6.669 -8.787,-13.515 -14.417,-19.036 -10.477,-10.275 -22.51,-17.848 -36.113,-23.236 -3.13,-1.748 -6.145,-4.578 -9.35,-6.117 -18.447,-8.858 -37.161,-16.512 -53.374,-29.273 -3.703,-3.139 -11.736,-7.275 -14.367,-11.395 -8.527,-13.353 -16.924,-27.402 -24.653,-41.256 -2.173,-3.896 -3.271,-8.806 -5.115,-12.877 -1.8,-3.972 -3.579,-7.833 -4.974,-11.928 -1.321,-3.999 -0.162,-8.43 -0.958,-12.512 -2.541,-6.596 -4.606,-10.856 -4.085,-18.357 0.416,-5.991 5.857,-10.479 10.368,-14.202 -7.596,-6.32 -17.138,-11.103 -25.255,-16.835 -5.252,-3.709 -8.206,-4.223 -11.503,-10.136 -30.532,-0.799 -60.381,2.525 -90.739,4.862 -11.946,0.92 -24.039,1.01 -36.035,2.374 -9.022,1.026 -18.493,-2.205 -27.116,-2.994 -9.267,-0.847 -20.102,0.261 -29.507,-0.132 -5.361,-0.096 -9.089,1.768 -13.617,1.983 -8.498,0.403 -17.591,-1.127 -26.15,-1.056 -12.001,0.099 -24.124,1.649 -36.102,0.802 -2.382,-0.176 -4.018,-1.522 -6.079,-2.847 -8.036,0.637 -12.746,-1.722 -20.507,-1.946 -12.746,-0.45 -26.823,1.071 -39.426,-0.344 -32.791,-3.683 -65.502,-9.184 -98.149,-13.991 l -64.619,-9.944 c -12.757,-1.983 -23.8593,-2.081 -36,-7.19 -2.9068,-1.148 -6.9992,-1.231 -9.8013,-2.293 -21.1716,-8.023 -50.7028,-13.363 -64.7362,-32.561 -4.78691,-6.549 -6.67926,-15.986 -11.0865,-23.309 v -32.435 c 5.42133,-7.262 2.10962,-9.261 12.7201,-9.961 29.0423,-1.915 44.9008,27.519 75.7181,22.695 -3.774,-8.169 -11.8002,-11.764 -18.2977,-17.098 -13.0477,-10.71 -25.6497,-19.901 -43.3871,-19.477 -5.5766,0.134 -12.0673,0.221 -17.57826,-0.484 -4.62064,-0.697 -6.6702,-4.38 -9.17514,-8.035 v -27.57 l 0.332916,-0.56 c 3.867184,-6.61 5.076314,-14.282 10.632284,-19.883 13.4783,-13.588 35.5041,-23.167 52.3766,-32.093 5.5727,-2.948 10.8818,-6.549 16.5948,-9.198 6.8629,-3.182 14.1803,-5.292 20.9884,-8.638 16.606,-8.159 32.771,-17.333 49.357,-25.518 7.291,-3.598 15.328,-6.784 22.829,-10.401 6.919,-3.363 13.937,-6.519 21.044,-9.463 4.18,-1.764 7.649,-2.337 11.016,-5.307 2.811,-2.478 9.928,-3.863 13.812,-5.037 l 28.801,-8.59 c 16.294,-4.802 32.497,-10.119 48.752,-15.06 5.263,-1.6 11.586,-1.67 16.643,-3.306 10.234,-3.311 20.135,-6.432 30.654,-8.752 4.527,-0.998 9.198,-2.8729 13.745,-3.8763 5.854,-1.4345 12.926,-0.0122 18.877,-1.646 4.001,-1.0985 10.627,-5.6329 14.252,-6.2313 14.878,-2.456 35.152,-1.4482 50.383,-1.4158 l 1.765,-4.547 c 4.197,-0.7638 10.285,-1.9024 14.197,-3.4153 z" id="path1" />
    <path fill="#4c4f6c" d="m 583.85,20.19501 c 34.748,-1.9559 74.886,4.8822 107.125,17.4336 10.234,3.9618 20.235,8.5017 29.954,13.598 6.266,3.2868 15.086,8.174 20.527,12.6401 12.271,10.0723 23.425,27.69 31.782,41.0921 7.361,11.804 17.463,29.248 23.03,41.939 -8.61,5.517 -17.501,8.516 -26.396,13.376 l 0.02,6.38 c 7.225,2.437 15.965,6.737 22.76,10.206 32.63,16.818 62.258,38.907 87.689,65.376 52.748,54.961 88.519,125.13 98.424,200.987 3.056,23.405 2.827,48.076 2.577,71.706 -0.15,14.185 -2.561,33.276 -5.206,47.17 -5.999,31.514 -14.474,63.26 -22.256,94.426 -7.003,26.805 -13.291,53.862 -22.978,79.869 -4.765,12.79 -7.225,25.728 -17.484,35.528 -4.669,1.225 -17.881,1.563 -22.179,-1.218 -2.97,-1.922 -6.007,-4.107 -8.871,-6.159 -23.78,-17.036 -32.338,-44.028 -39.9,-70.862 -14.244,-50.543 -49.608,-75.561 -94.193,-98.337 -7.893,-4.418 -16.929,-7.581 -24.683,-12.16 -34.501,-20.376 -54.137,-49.131 -64.964,-86.606 15.189,-8.959 34.08,-14.903 51.453,-17.716 l -0.055,-6.828 c -16.282,-5.958 -29.196,-11.585 -44.397,-19.85 -9.359,-5.459 -19.188,-11.87 -27.846,-18.389 -5.988,-4.509 -10.992,-9.522 -17.455,-13.693 -12.186,-0.036 -31.165,2.614 -43.808,3.695 -23.246,1.927 -46.533,3.33 -69.842,4.209 -86.986,3.237 -174.092,-0.162 -260.561,-10.169 -44.055,-5.34 -87.857,-12.592 -131.282,-21.735 -19.0263,-3.926 -44.8047,-9.74 -62.8311,-16.911 -8.043,-3.2 -29.3245,-21.485 -34.9705,-28.632 -0.1172,-7.49 0.3783,-10.391 3.1959,-17.31 22.3153,14.773 41.1144,23.318 68.0694,27.114 16.1903,2.28 26.4433,-0.284 39.7263,-10.356 -0.147,-4.654 -0.342,-9.146 -2.364,-13.427 -4.259,-9.018 -40.698,-39.614 -50.4731,-44.972 -9.4386,-5.173 -21.0347,-8.456 -31.4296,-11.212 -2.6087,-0.691 -5.2752,-1.334 -7.9631,-1.613 -5.0018,-0.519 -11.643,0.17 -16.2558,-1.84 -1.2437,-0.542 -1.5545,-0.927 -1.984,-2.177 0.9553,-3.332 6.2601,-8.953 8.6394,-11.819 6.611,-7.962 16.584,-12.664 25.5505,-17.619 10.1215,-5.616 20.2891,-11.148 30.5018,-16.597 59.6649,-31.77 124.6589,-64.412 188.5589,-86.12 26.162,-8.681 52.752,-16.019 79.665,-21.985 17.268,-3.923 34.674,-7.215 52.183,-9.868 8.779,-1.25 17.574,-2.393 26.381,-3.429 12.114,-1.373 27.011,-2.025 38.056,-6.643 7.664,-3.205 15.878,-11.652 22.183,-17.3019 l 32.721,-29.1861 c 21.316,-18.9888 31.291,-32.4373 61.855,-34.0048 z" id="path2" />
    <path fill="#c9ceee" d="m 439.653,278.85881 c 8.237,-0.085 16.042,0.392 23.59,3.69 31.942,13.736 22.774,56.593 -0.499,73.942 -9.877,7.363 -24.633,12.426 -36.182,17.134 -11.068,4.589 -22.184,9.062 -33.346,13.417 6.176,1.414 13.679,1.53 20.025,1.923 11.94,0.89 23.94,0.773 35.865,1.09 13.983,0.37 27.785,1.721 41.828,0.602 2.734,-0.217 6.098,-0.398 8.837,-0.42 32.412,-0.25 64.163,-6.581 96.213,-10.711 37.726,-4.925 75.594,-8.692 113.551,-11.295 15.153,-1.092 31.966,-2.826 47.028,-2.973 10.507,0.396 20.957,2.257 31.399,3.55 10.164,1.69 20.727,2.194 30.833,4.154 12.177,2.362 25.39,11.717 36.444,17.498 6.399,3.346 14.561,7.456 20.395,11.219 1.814,1.147 3.45,2.554 4.855,4.177 6.658,7.696 15.096,25.416 21.805,35.229 3.686,-3.017 8.783,-6.279 12.776,-9.037 11.059,-7.64 15.565,-15.549 21.414,-27.062 l 6.609,0.117 c -0.845,17.103 -7.735,31.847 -19.696,44.125 -8.529,8.755 -19.676,23.215 -32.55,10.501 -9.962,-10.847 -15.789,-25.487 -24.085,-37.348 -4.621,-6.606 -16.502,-12.171 -23.616,-16.087 -8.91,-4.904 -18.663,-10.607 -28.221,-14.182 -7.889,-2.538 -21.989,-3.327 -30.464,-4.291 -8.255,-0.939 -17.224,-3.241 -25.367,-3.517 -6.249,-0.212 -14.193,0.464 -20.551,0.888 l -29.729,2.106 c -39.255,2.875 -78.417,6.908 -117.433,12.093 -27.084,3.71 -53.873,8.748 -81.28,9.496 -75.745,2.068 -151.466,-3.556 -226.899,-9.819 -8.854,-0.735 -17.765,-1.906 -26.588,-3.002 0.657,-8.287 4.065,-14.177 10.032,-20.182 28.769,-28.529 67.434,-48.144 102.544,-67.946 20.01,-11.287 47.446,-27.843 70.463,-29.079 z" id="path3" />
    <path fill="#c9ceee" d="m 474.867,140.26981 c 4.716,-0.698 25.499,0.747 31.714,0.952 83.767,2.626 166.264,21.198 243.07,54.722 11.728,5.093 33.719,14.568 43.631,21.516 0.978,4.335 0.909,7.766 0.854,12.13 -1.248,1.166 -2.728,2.261 -4.083,3.319 -14.295,1.204 -21.822,-4.077 -34.546,-9.098 -11.586,-4.562 -23.301,-8.788 -35.132,-12.672 -45.533,-14.949 -90.214,-24.592 -137.523,-32.354 -31.538,-3.778 -62.052,-6.728 -93.818,-7.493 -50.333,-0.932 -100.637,3.05 -150.196,11.888 -14.029,2.425 -33.127,6.359 -47.063,9.763 -18.984,4.638 -25.897,8.609 -46.038,9.397 -2.586,-2.385 -3.838,-3.983 -5.792,-6.86 -0.871,-14.206 2.497,-12.769 14.738,-17.449 4.656,-1.78 9.61,-3.264 14.364,-4.78 50.806,-16.2 103.283,-26.6 156.429,-31.001 17.064,-1.4 33.153,-0.512 49.391,-1.98 z" id="path4" />
    <path fill="#c9ceee" d="m 268.159,215.51781 c 2.871,-0.314 6.051,-0.162 8.878,0.371 50.05,9.423 60.305,77.454 27.414,110.169 -5.812,5.781 -13.554,10.485 -20.581,14.772 -7.192,4.384 -14.569,8.46 -22.108,12.216 -4.931,2.396 -14.254,5.605 -18.19,8.356 l -0.444,0.316 c -2.955,5.769 -3.199,11.391 -4.111,17.859 -9.282,8.086 -23.28,6.556 -34.779,6.623 -14.208,0.082 -28.582,-0.249 -42.72,-1.639 -9.451,-0.928 -18.726,-2.787 -28.229,-3.441 -3.228,-3.196 -6.425,-6.412 -3.574,-11.138 1.445,-0.913 4.945,-2.297 6.674,-3.118 6.749,-3.206 11.698,-6.689 16.686,-12.196 5.669,-6.26 9.435,-14.56 6.81,-22.998 -2.27,-7.299 -3.58,-7.582 -4.044,-15.565 l 6.998,0.003 c 12.271,9.12 15.98,15.545 16.289,31.559 0.061,3.16 -0.762,8.752 -0.058,11.558 1.657,1.371 5.39,0.803 7.448,0.48 20.179,-3.161 42.778,-9.179 56.635,-25.122 5.99,-6.892 9.934,-15.32 11.387,-24.334 3.747,-21.918 -6.879,-37.98 -15.797,-56.887 -3.984,-8.447 -6.28,-11.351 -6.958,-20.652 9.202,-8.119 24.379,-14.536 36.374,-17.192 z" id="path5" />
    <path fill="#c9ceee" d="m 736.885,410.13781 c 33.509,-0.995 91.623,1.495 117.363,25.533 4.338,4.052 16.169,17.081 16.143,23.135 -0.005,1.213 -0.444,2.311 -1.347,3.131 -2.618,2.38 -7.936,1.505 -11.262,1.385 -5.551,-0.056 -11.183,0.161 -16.721,0.578 -23.307,1.857 -47.121,1.924 -70.281,5.067 -8.752,1.187 -15.658,2.896 -24.776,3.247 0.045,-9.86 0.404,-22.997 -1.92,-32.465 -1.234,-4.943 -3.112,-9.702 -5.586,-14.155 -2.724,-4.81 -8.321,-11.263 -1.613,-15.456 z" id="path6" />
    <path fill="#c9ceee" d="m 121.497,232.70881 c 14.402,-1.129 26.979,9.659 28.051,24.061 1.072,14.402 -9.77,26.932 -24.18,27.945 -14.329,1.008 -26.7757,-9.756 -27.8414,-24.076 -1.0658,-14.32 9.6504,-26.807 23.9704,-27.93 z" id="path7" />
  </g>
</g></svg>