<?xml version="1.0" encoding="utf-8" ?><svg xmlns="http://www.w3.org/2000/svg" xmlns:xlink="http://www.w3.org/1999/xlink" width="996" height="792" viewBox="0 0 996 792"><path fill="#C9CEEE" d="M457.052 81.5143C468.916 67.2533 486.755 55.4054 501.781 43.0779C513.127 33.7695 533.323 16.5708 545.88 8.64288C548.837 6.77604 571.666 4.06715 576.142 3.66132C581.915 3.13921 587.709 2.87357 593.506 2.86519C605.235 2.94499 616.881 4.2289 628.581 4.63767C636.677 4.92049 644.9 4.24776 652.957 4.74467C654.299 4.82738 656.143 4.92525 657.25 5.73685C658.678 6.78415 657.915 7.99247 658.634 8.82884C659.565 9.91203 670.567 9.64471 672.555 9.93544C674.941 10.2843 677.36 11.1489 679.645 11.9099C686.225 14.1012 692.666 16.9202 699.273 18.9641C702.62 19.9996 706.197 20.1506 709.561 21.1228C718.136 23.6009 727.55 28.5079 735.017 33.3913C741.841 37.8543 747.717 43.5158 754.316 48.2567C759.297 51.835 765.681 53.7713 769.876 58.3481C776.505 65.5826 787.905 85.1843 793.353 94.1737C798.139 102.072 802.127 109.951 806.271 118.188C808.359 122.338 810.881 126.447 812.421 130.84C813.639 134.316 814.311 137.804 814.601 141.475C815.193 148.942 814.805 156.7 814.703 164.195C824.907 169.788 836.246 176.03 846.228 181.833C848.513 183.161 861.664 193.817 864.255 196.12C869.552 200.827 882.219 209.322 886.627 213.763C893.855 221.047 904.167 234.418 910.978 242.728C927.391 262.752 945.141 282.614 958.126 305.056C963.08 313.618 968.41 327.781 972.07 337.13C973.972 341.989 979.144 352.824 980.084 356.629C982.948 368.226 987.443 378.696 990.358 390.019C992.612 398.775 992.751 408.033 996 416.873L996 577.993C994.392 580.891 993.707 586.674 992.764 590.06C988.177 606.534 985.827 623.427 980.96 639.852C979.693 644.126 979.492 649.497 978.169 653.824C974.282 666.52 970.95 679.189 967.805 692.092C966.75 696.421 966.994 702.946 965.829 707.081C964.104 713.208 962.004 719.572 960.068 725.658C958.773 729.729 957.292 736.951 955.77 740.46C950.427 752.769 943.418 766.294 941.765 779.749C937.025 784.381 934.905 786.224 931.49 792L875.06 792C871.227 787.987 866.82 785.347 862.143 781.994C846.137 770.515 836.615 752.546 829.209 734.787C827.814 731.441 827.6 725.961 826.211 722.432C821.48 710.416 819.673 697.518 813.646 685.997C811.133 681.194 806.478 677.073 803.466 672.563C799.216 665.894 794.679 659.048 789.049 653.527C778.572 643.252 766.539 635.679 752.936 630.291C749.806 628.543 746.791 625.713 743.586 624.174C725.139 615.316 706.425 607.662 690.212 594.901C686.509 591.762 678.476 587.626 675.845 583.506C667.318 570.153 658.921 556.104 651.192 542.25C649.019 538.354 647.921 533.444 646.077 529.373C644.277 525.401 642.498 521.54 641.103 517.445C639.782 513.446 640.941 509.015 640.145 504.933C637.604 498.337 635.539 494.077 636.06 486.576C636.476 480.585 641.917 476.097 646.428 472.374C638.832 466.054 629.29 461.271 621.173 455.539C615.921 451.83 612.967 451.316 609.67 445.403C579.138 444.604 549.289 447.928 518.931 450.265C506.985 451.185 494.892 451.275 482.896 452.639C473.874 453.665 464.403 450.434 455.78 449.645C446.513 448.798 435.678 449.906 426.273 449.513C420.912 449.417 417.184 451.281 412.656 451.496C404.158 451.899 395.065 450.369 386.506 450.44C374.505 450.539 362.382 452.089 350.404 451.242C348.022 451.066 346.386 449.72 344.325 448.395C336.289 449.032 331.579 446.673 323.818 446.449C311.072 445.999 296.995 447.52 284.392 446.105C251.601 442.422 218.89 436.921 186.243 432.114L121.624 422.17C108.867 420.187 97.7647 420.089 85.624 414.98C82.7172 413.832 78.6248 413.749 75.8227 412.687C54.6511 404.664 25.1199 399.324 11.0865 380.126C6.29959 373.577 4.40724 364.14 0 356.817L0 324.382C5.42133 317.12 2.10962 315.121 12.7201 314.421C41.7624 312.506 57.6209 341.94 88.4382 337.116C84.6642 328.947 76.638 325.352 70.1405 320.018C57.0928 309.308 44.4908 300.117 26.7534 300.541C21.1768 300.675 14.6861 300.762 9.17514 300.057C4.5545 299.36 2.50494 295.677 0 292.022L0 264.452L0.332916 263.892C4.2001 257.282 5.40923 249.61 10.9652 244.009C24.4435 230.421 46.4693 220.842 63.3418 211.916C68.9145 208.968 74.2236 205.367 79.9366 202.718C86.7995 199.536 94.1169 197.426 100.925 194.08C117.531 185.921 133.696 176.747 150.282 168.562C157.573 164.964 165.61 161.778 173.111 158.161C180.03 154.798 187.048 151.642 194.155 148.698C198.335 146.934 201.804 146.361 205.171 143.391C207.982 140.913 215.099 139.528 218.983 138.354L247.784 129.764C264.078 124.962 280.281 119.645 296.536 114.704C301.799 113.104 308.122 113.034 313.179 111.398C323.413 108.087 333.314 104.966 343.833 102.646C348.36 101.648 353.031 99.7731 357.578 98.7697C363.432 97.3352 370.504 98.7575 376.455 97.1237C380.456 96.0252 387.082 91.4908 390.707 90.8924C405.585 88.4364 425.859 89.4442 441.09 89.4766L442.855 84.9296C447.052 84.1658 453.14 83.0272 457.052 81.5143Z"/><path fill="#4C4F6C" d="M583.85 23.0602C618.598 21.1043 658.736 27.9424 690.975 40.4938C701.209 44.4556 711.21 48.9955 720.929 54.0918C727.195 57.3786 736.015 62.2658 741.456 66.7319C753.727 76.8042 764.881 94.4219 773.238 107.824C780.599 119.628 790.701 137.072 796.268 149.763C787.658 155.28 778.767 158.279 769.872 163.139L769.892 169.519C777.117 171.956 785.857 176.256 792.652 179.725C825.282 196.543 854.91 218.632 880.341 245.101C933.089 300.062 968.86 370.231 978.765 446.088C981.821 469.493 981.592 494.164 981.342 517.794C981.192 531.979 978.781 551.07 976.136 564.964C970.137 596.478 961.662 628.224 953.88 659.39C946.877 686.195 940.589 713.252 930.902 739.259C926.137 752.049 923.677 764.987 913.418 774.787C908.749 776.012 895.537 776.35 891.239 773.569C888.269 771.647 885.232 769.462 882.368 767.41C858.588 750.374 850.03 723.382 842.468 696.548C828.224 646.005 792.86 620.987 748.275 598.211C740.382 593.793 731.346 590.63 723.592 586.051C689.091 565.675 669.455 536.92 658.628 499.445C673.817 490.486 692.708 484.542 710.081 481.729L710.026 474.901C693.744 468.943 680.83 463.316 665.629 455.051C656.27 449.592 646.441 443.181 637.783 436.662C631.795 432.153 626.791 427.14 620.328 422.969C608.142 422.933 589.163 425.583 576.52 426.664C553.274 428.591 529.987 429.994 506.678 430.873C419.692 434.11 332.586 430.711 246.117 420.704C202.062 415.364 158.26 408.112 114.835 398.969C95.8087 395.043 70.0303 389.229 52.0039 382.058C43.9609 378.858 22.6794 360.573 17.0334 353.426C16.9162 345.936 17.4117 343.035 20.2293 336.116C42.5446 350.889 61.3437 359.434 88.2987 363.23C104.489 365.51 114.742 362.946 128.025 352.874C127.878 348.22 127.683 343.728 125.661 339.447C121.402 330.429 84.963 299.833 75.1879 294.475C65.7493 289.302 54.1532 286.019 43.7583 283.263C41.1496 282.572 38.4831 281.929 35.7952 281.65C30.7934 281.131 24.1522 281.82 19.5394 279.81C18.2957 279.268 17.9849 278.883 17.5554 277.633C18.5107 274.301 23.8155 268.68 26.1948 265.814C32.8058 257.852 42.7788 253.15 51.7453 248.195C61.8668 242.579 72.0344 237.047 82.2471 231.598C141.912 199.828 206.906 167.186 270.806 145.478C296.968 136.797 323.558 129.459 350.471 123.493C367.739 119.57 385.145 116.278 402.654 113.625C411.433 112.375 420.228 111.232 429.035 110.196C441.149 108.823 456.046 108.171 467.091 103.553C474.755 100.348 482.969 91.901 489.274 86.2511L521.995 57.065C543.311 38.0762 553.286 24.6277 583.85 23.0602Z"/><path fill="#C9CEEE" d="M439.653 281.724C447.89 281.639 455.695 282.116 463.243 285.414C495.185 299.15 486.017 342.007 462.744 359.356C452.867 366.719 438.111 371.782 426.562 376.49C415.494 381.079 404.378 385.552 393.216 389.907C399.392 391.321 406.895 391.437 413.241 391.83C425.181 392.72 437.181 392.603 449.106 392.92C463.089 393.29 476.891 394.641 490.934 393.522C493.668 393.305 497.032 393.124 499.771 393.102C532.183 392.852 563.934 386.521 595.984 382.391C633.71 377.466 671.578 373.699 709.535 371.096C724.688 370.004 741.501 368.27 756.563 368.123C767.07 368.519 777.52 370.38 787.962 371.673C798.126 373.363 808.689 373.867 818.795 375.827C830.972 378.189 844.185 387.544 855.239 393.325C861.638 396.671 869.8 400.781 875.634 404.544C877.448 405.691 879.084 407.098 880.489 408.721C887.147 416.417 895.585 434.137 902.294 443.95C905.98 440.933 911.077 437.671 915.07 434.913C926.129 427.273 930.635 419.364 936.484 407.851L943.093 407.968C942.248 425.071 935.358 439.815 923.397 452.093C914.868 460.848 903.721 475.308 890.847 462.594C880.885 451.747 875.058 437.107 866.762 425.246C862.141 418.64 850.26 413.075 843.146 409.159C834.236 404.255 824.483 398.552 814.925 394.977C807.036 392.439 792.936 391.65 784.461 390.686C776.206 389.747 767.237 387.445 759.094 387.169C752.845 386.957 744.901 387.633 738.543 388.057L708.814 390.163C669.559 393.038 630.397 397.071 591.381 402.256C564.297 405.966 537.508 411.004 510.101 411.752C434.356 413.82 358.635 408.196 283.202 401.933C274.348 401.198 265.437 400.027 256.614 398.931C257.271 390.644 260.679 384.754 266.646 378.749C295.415 350.22 334.08 330.605 369.19 310.803C389.2 299.516 416.636 282.96 439.653 281.724Z"/><path fill="#C9CEEE" d="M474.867 143.135C479.583 142.437 500.366 143.882 506.581 144.087C590.348 146.713 672.845 165.285 749.651 198.809C761.379 203.902 783.37 213.377 793.282 220.325C794.26 224.66 794.191 228.091 794.136 232.455C792.888 233.621 791.408 234.716 790.053 235.774C775.758 236.978 768.231 231.697 755.507 226.676C743.921 222.114 732.206 217.888 720.375 214.004C674.842 199.055 630.161 189.412 582.852 181.65C551.314 177.872 520.8 174.922 489.034 174.157C438.701 173.225 388.397 177.207 338.838 186.045C324.809 188.47 305.711 192.404 291.775 195.808C272.791 200.446 265.878 204.417 245.737 205.205C243.151 202.82 241.899 201.222 239.945 198.345C239.074 184.139 242.442 185.576 254.683 180.896C259.339 179.116 264.293 177.632 269.047 176.116C319.853 159.916 372.33 149.516 425.476 145.115C442.54 143.715 458.629 144.603 474.867 143.135Z"/><path fill="#C9CEEE" d="M268.159 218.383C271.03 218.069 274.21 218.221 277.037 218.754C327.087 228.177 337.342 296.208 304.451 328.923C298.639 334.704 290.897 339.408 283.87 343.695C276.678 348.079 269.301 352.155 261.762 355.911C256.831 358.307 247.508 361.516 243.572 364.267L243.128 364.583C240.173 370.352 239.929 375.974 239.017 382.442C229.735 390.528 215.737 388.998 204.238 389.065C190.03 389.147 175.656 388.816 161.518 387.426C152.067 386.498 142.792 384.639 133.289 383.985C130.061 380.789 126.864 377.573 129.715 372.847C131.16 371.934 134.66 370.55 136.389 369.729C143.138 366.523 148.087 363.04 153.075 357.533C158.744 351.273 162.51 342.973 159.885 334.535C157.615 327.236 156.305 326.953 155.841 318.97L162.839 318.973C175.11 328.093 178.819 334.518 179.128 350.532C179.189 353.692 178.366 359.284 179.07 362.09C180.727 363.461 184.46 362.893 186.518 362.57C206.697 359.409 229.296 353.391 243.153 337.448C249.143 330.556 253.087 322.128 254.54 313.114C258.287 291.196 247.661 275.134 238.743 256.227C234.759 247.78 232.463 244.876 231.785 235.575C240.987 227.456 256.164 221.039 268.159 218.383Z"/><path fill="#C9CEEE" d="M736.885 413.003C770.394 412.008 828.508 414.498 854.248 438.536C858.586 442.588 870.417 455.617 870.391 461.671C870.386 462.884 869.947 463.982 869.044 464.802C866.426 467.182 861.108 466.307 857.782 466.187C852.231 466.131 846.599 466.348 841.061 466.765C817.754 468.622 793.94 468.689 770.78 471.832C762.028 473.019 755.122 474.728 746.004 475.079C746.049 465.219 746.408 452.082 744.084 442.614C742.85 437.671 740.972 432.912 738.498 428.459C735.774 423.649 730.177 417.196 736.885 413.003Z"/><path fill="#C9CEEE" d="M121.497 235.574C135.899 234.445 148.476 245.233 149.548 259.635C150.62 274.037 139.778 286.567 125.368 287.58C111.039 288.588 98.5923 277.824 97.5266 263.504C96.4608 249.184 107.177 236.697 121.497 235.574Z"/></svg>