<?xml version='1.0' encoding='utf-8'?>
<svg xmlns="http://www.w3.org/2000/svg" viewBox="0 0 24 24" fill="none" version="1.1" id="svg2">
  <g transform="translate(2.067744,0.000000) scale(1.000000)"><defs id="defs1" />
  <g transform="scale(1.3699665)" id="g1">
    <defs id="defs2" />
    <path d="m 7.25,17.518677 c -1.9228,0 -3.76689,-0.7638 -5.12652,-2.1235 C 0.76384,14.035577 0,12.191477 0,10.268677 0,8.3458771 0.76384,6.5017871 2.12348,5.1421571 3.48311,3.7825171 5.3272,3.0186771 7.25,3.0186771 h 2.5 c 0.1989,0 0.3897,0.07902 0.5303,0.21967 0.1407,0.14065 0.2197,0.33142 0.2197,0.53033 0,0.19891 -0.079,0.38968 -0.2197,0.53033 -0.1406,0.14065 -0.3314,0.21967 -0.5303,0.21967 h -2.5 c -1.1372,0 -2.24895,0.33723 -3.19453,0.96905 -0.94558,0.63182 -1.68257,1.52985 -2.11778,2.58055 -0.4352,1.0506 -0.54907,2.2067999 -0.32721,3.3221999 0.22187,1.1154 0.7695,2.1399 1.57366,2.9441 0.80415,0.8041 1.8287,1.3518 2.94406,1.5736 1.1154,0.2219 2.2716,0.108 3.3222,-0.3272 1.0507,-0.4352 1.9487,-1.1722 2.5806,-2.1178 0.6318,-0.9456 0.969,-2.0573 0.969,-3.1945 0,-0.1989 0.079,-0.3896999 0.2197,-0.5302999 0.1406,-0.1407 0.3314,-0.2197 0.5303,-0.2197 0.1989,0 0.3897,0.079 0.5303,0.2197 0.1407,0.1406 0.2197,0.3313999 0.2197,0.5302999 -0.0026,1.922 -0.7673,3.7645 -2.1264,5.1236 -1.3591,1.3591 -3.2016,2.1238 -5.1236,2.1264 z" fill="#000000" id="path1" />
    <path d="m 7.25,7.5186771 c -0.0985,5e-4 -0.1962,-0.0187 -0.2872,-0.0565 -0.091,-0.0378 -0.1736,-0.0934 -0.2428,-0.1635 -0.1404,-0.1406 -0.2193,-0.3312 -0.2193,-0.53 0,-0.19872 0.0789,-0.38934 0.2193,-0.52997 l 2.47,-2.47 -2.47,-2.47 c -0.0737,-0.06866 -0.1328,-0.15146 -0.1738,-0.24346 -0.041,-0.092 -0.063,-0.19131 -0.0648,-0.29202 -0.0018,-0.1007 0.0168,-0.20073 0.0545,-0.29412 0.0377,-0.09338 0.0938,-0.17822 0.1651,-0.24944 0.0712,-0.07122 0.156,-0.12736 0.2494,-0.16508 0.0934,-0.03772 0.1934,-0.05625 0.2941,-0.0544700047 0.1007,0.001780005 0.2,0.0238200047 0.292,0.0648100047 0.092,0.04099 0.1748,0.10009 0.2435,0.17378 l 3,3 c 0.1405,0.14063 0.2193,0.33125 0.2193,0.53 0,0.19875 -0.0788,0.38938 -0.2193,0.53 l -3,2.99997 c -0.0692,0.0701 -0.1518,0.1257 -0.2428,0.1635 -0.091,0.0378 -0.1887,0.057 -0.2872,0.0565 z" fill="#000000" id="path2" />
  </g>
</g></svg>