<?xml version="1.0" encoding="UTF-8" standalone="no"?>
<svg
   viewBox="0 0 23.189863 16.011181"
   version="1.1"
   id="svg12"
   width="23.189863"
   height="16.011181"
   xmlns="http://www.w3.org/2000/svg"
   xmlns:svg="http://www.w3.org/2000/svg">
  <defs
     id="defs12" />
  <g
     transform="matrix(0.023438,0,0,0.023438,-0.41526708,-3.8917595)"
     id="g12">
    <path
       fill="#203756"
       d="m 510.525,560.943 c 0.195,-6.043 3.96,-20.48 8.101,-25.407 10.734,-12.772 22.806,-8.474 36.692,-9.574 6.801,-0.538 19.01,-5.658 24.762,-9.629 6.061,-3.879 8.838,-10.726 13.628,-15.696 7.595,-7.581 15.462,-15.555 23.153,-22.972 9.198,-8.871 13.791,-14.525 16.345,-27.353 2.129,-10.697 5.212,-20.427 12.313,-29.044 27.135,-32.934 55.376,-65.185 87.848,-93.016 24.659,-21.247 49.325,-36.162 76.188,-53.666 51.511,-34.224 104.991,-65.388 160.162,-93.331 6.925,-3.523 26.311,-14.634 33.143,-15.18 1.04,-0.083 1.65,-0.047 2.35,0.802 1.86,2.251 1.93,6.285 1.92,9.072 -0.05,16.712 -7.952,68.958 -18.278,81.518 -1.506,1.832 -3.223,2.976 -5.293,4.091 -5.51,2.969 -11.826,4.837 -17.647,7.174 l -36.56,14.797 c -29.412,11.818 -58.593,24.204 -87.526,37.151 -33.589,14.989 -66.901,30.511 -98.533,49.38 -4.312,2.573 -9.948,5.668 -13.291,9.391 -3.703,-0.125 -39.06,24.336 -44.441,28.144 -9.307,6.586 -21.996,18.042 -29.894,26.442 -1.441,5.572 -1.391,12.977 -1.549,18.852 5.271,-1.356 17.98,-6.308 22.284,-9.433 5.704,-0.376 16.9,-4.367 22.902,-5.894 15.206,-3.86 30.526,-7.258 45.939,-10.186 49.306,-9.182 99.677,-11.249 149.726,-11.213 4.637,0.003 25.194,-1.692 23.986,5.527 -2.097,12.535 -16.181,25.173 -24.707,34.332 -9.773,9.296 -21.899,22.433 -33.18,28.971 -2.764,1.602 -11.375,2.305 -14.574,2.231 -22.633,-0.527 -49.981,-1.939 -71.858,-3.16 -19.147,-1.069 -99.604,-9.511 -113.169,-5.376 -6.086,1.949 -11.349,2.521 -17.508,3.743 -3.045,0.605 -7.076,4.855 -9.892,6.28 -11.774,6.29 -30.516,13.814 -20.981,31.103 0.062,0.298 0.115,0.597 0.187,0.892 0.876,3.605 26.753,30.859 30.863,34.905 2.384,2.345 17.181,13.508 17.27,15.89 0.01,0.269 -0.669,1.759 -0.874,2.079 -7.384,11.529 -85.905,14.885 -92.214,23.862 -4.567,6.499 -0.871,17.763 -3.607,25.084 -2.106,5.634 -9.702,4.794 -11.71,10.238 -3.993,10.828 -1.346,23.135 -4.78,33.996 -2.912,9.207 -10.641,8.71 -13.4,24.167 -2.112,11.831 0.145,29.392 -2.922,39.328 -2.214,7.174 -10.516,9.978 -12.498,18.082 -2.513,10.27 -1.34,22.583 -1.182,33.121 0.102,7.311 -0.009,14.624 -0.334,21.929 -0.766,18.788 -2.848,19.018 -11.084,35.282 -0.924,3.075 -1.712,7.281 -2.406,10.505 -9.434,-30.778 -5.461,-68.082 -7.713,-100.27 -0.902,-12.875 -12.098,-21.261 -14.549,-31.666 -2.183,-9.262 0.18,-29.487 -1.107,-40.215 -1.607,-13.382 -10.96,-13.363 -15.874,-24.049 -2.57,-7.073 0.187,-13.936 -3.482,-20.884 -3.055,-5.786 -16.847,-12.272 -15.36,-19.342 3.576,-5.565 14.906,-0.666 2.749,-16.109 8.35,-2.905 16.779,15.395 19.027,21.769 0.953,-1.611 4.159,-4.284 5.601,-6.046 6.24,-7.63 11.358,-14.557 21.968,-15.723 -0.328,0.939 -0.82,2.408 -0.5,3.332 2.207,6.366 6.218,12.734 8.971,19.099 l 5.354,-6.201 c -2.946,-17.875 -3.142,-34.187 1.045,-51.926 z"
       id="path1" />
    <path
       fill="#939daa"
       d="m 510.525,560.943 c 2.697,4.44 -0.339,18.276 4.374,25.522 6.887,10.587 24.146,19.492 29.558,29.389 0.432,10.658 -0.926,29.426 -8.72,37.005 -4.258,4.14 -9.254,7.379 -13.295,11.113 0.716,1.37 3.71,6.874 3.771,8.033 0.592,11.205 -1.667,25.638 -4.47,36.402 -2.197,8.436 -10.145,14.119 -11.704,20.099 -4.508,17.289 -2.588,38.603 -3.424,56.557 -0.203,4.359 -0.775,14.696 -0.672,18.231 0.448,6.888 -0.692,31.041 0.858,35.375 -0.924,3.075 -1.712,7.281 -2.406,10.505 -9.434,-30.778 -5.461,-68.082 -7.713,-100.27 -0.902,-12.875 -12.098,-21.261 -14.549,-31.666 -2.183,-9.262 0.18,-29.487 -1.107,-40.215 -1.607,-13.382 -10.96,-13.363 -15.874,-24.049 -2.57,-7.073 0.187,-13.936 -3.482,-20.884 -3.055,-5.786 -16.847,-12.272 -15.36,-19.342 3.576,-5.565 14.906,-0.666 2.749,-16.109 8.35,-2.905 16.779,15.395 19.027,21.769 0.953,-1.611 4.159,-4.284 5.601,-6.046 6.24,-7.63 11.358,-14.557 21.968,-15.723 -0.328,0.939 -0.82,2.408 -0.5,3.332 2.207,6.366 6.218,12.734 8.971,19.099 l 5.354,-6.201 c -2.946,-17.875 -3.142,-34.187 1.045,-51.926 z"
       id="path2" />
    <path
       fill="#203756"
       d="m 449.059,596.639 c 8.35,-2.905 16.779,15.395 19.027,21.769 2.145,8.985 0.889,20.075 3.26,27.016 2.374,6.951 12.504,11.694 14.431,22.057 2.652,14.266 0.03,32.411 3.133,45.987 1.877,8.209 10.206,14.812 11.747,26.508 1.509,11.453 1.567,19.741 1.699,31.392 0.156,13.719 0.708,29.309 2.782,42.846 0.131,-2.876 0.227,-8.34 0.805,-10.92 0.448,6.888 -0.692,31.041 0.858,35.375 -0.924,3.075 -1.712,7.281 -2.406,10.505 -9.434,-30.778 -5.461,-68.082 -7.713,-100.27 -0.902,-12.875 -12.098,-21.261 -14.549,-31.666 -2.183,-9.262 0.18,-29.487 -1.107,-40.215 -1.607,-13.382 -10.96,-13.363 -15.874,-24.049 -2.57,-7.073 0.187,-13.936 -3.482,-20.884 -3.055,-5.786 -16.847,-12.272 -15.36,-19.342 3.576,-5.565 14.906,-0.666 2.749,-16.109 z"
       id="path3" />
    <path
       fill="#cf7f39"
       d="m 19.0406,168.563 c 8.2378,2.447 25.4718,12.128 33.8708,16.375 54.4236,27.518 106.6126,58.925 157.3346,92.74 24.143,16.095 47.168,29.576 70.024,48.348 23.729,19.489 44.76,41.744 65.216,64.622 3.433,3.839 14.043,15.478 16.613,19.188 1.037,8.36 3.038,18.287 3.523,26.377 -2.109,-1.762 -5.763,-5.584 -8.062,-7.714 -5.215,-4.781 -10.623,-9.348 -16.21,-13.688 -5.008,-3.838 -50.939,-35.901 -55.218,-35.329 -5.389,-5.083 -22.271,-14.182 -29.691,-18.22 C 204.09,332.777 149.281,308.828 94.1826,286.293 84.3811,282.284 39.3283,265.205 35.865,260.587 24.7562,245.777 13.8738,184.882 19.0406,168.563 Z"
       id="path4" />
    <path
       fill="#939daa"
       d="m 730.002,379.451 c 8.748,-2.365 15.515,-5.246 23.674,-9.125 14.773,-7.025 30.311,-13.434 45.562,-19.349 28.738,-10.826 57.854,-20.618 87.293,-29.359 25.765,-7.881 51.741,-15.054 77.899,-21.514 6.343,-1.516 21.176,-5.574 26.86,-4.804 8.589,6.669 -27.983,87.501 -45.755,88.216 -5.25,0.212 -17.58,2.659 -23.264,3.382 -12.385,1.578 -24.757,3.252 -37.116,5.023 -65.086,9.229 -131.516,18.482 -192.401,44.437 -5.219,2.225 -11.343,4.571 -16.352,7.098 -4.304,3.125 -17.013,8.077 -22.284,9.433 0.158,-5.875 0.108,-13.28 1.549,-18.852 7.898,-8.4 20.587,-19.856 29.894,-26.442 5.381,-3.808 40.738,-28.269 44.441,-28.144 z"
       id="path5" />
    <path
       fill="#a8c052"
       d="m 343.006,444.631 c -5.819,-3.823 -17.833,-8.742 -24.488,-11.401 -39.477,-15.776 -80.552,-24.012 -122.343,-30.928 -19.386,-3.289 -38.838,-6.177 -58.343,-8.663 l -34.653,-4.528 c -5.0157,-0.611 -24.32,-2.476 -27.484,-3.972 -15.5617,-7.358 -48.0493,-71.962 -42.7398,-85.856 3.3807,-2.715 20.5564,2.261 25.4743,3.419 39.1539,9.62 77.8805,20.902 116.0745,33.817 12.941,4.375 25.81,8.957 38.603,13.745 15.235,5.993 30.383,12.206 45.438,18.636 6.971,3.013 20.439,10.384 27.587,10.582 4.279,-0.572 50.21,31.491 55.218,35.329 5.587,4.34 10.995,8.907 16.21,13.688 2.299,2.13 5.953,5.952 8.062,7.714 0.956,6.952 0.945,12.37 0.893,19.326 -1.66,-0.341 -22.237,-9.922 -23.509,-10.908 z"
       id="path6" />
    <path
       fill="#203756"
       d="m 363.117,480.694 c -15.812,-3.937 -69.254,1.923 -88.11,3.592 -22.688,1.856 -45.414,3.212 -68.161,4.066 -9.858,0.383 -37.263,2.917 -44.204,-2.141 -14.858,-10.825 -32.688,-28.504 -45.327,-42.432 -26.4168,-29.112 -4.14,-25.628 18.353,-25.92 52.622,-0.68 105.172,4.1 156.808,14.264 13.466,2.737 26.945,6.384 40.233,9.89 3.263,0.86 6.465,1.829 9.775,2.513 l 0.522,0.105 c 1.272,0.986 21.849,10.567 23.509,10.908 l -0.264,1.831 c -0.825,8.208 -0.844,15.593 -0.913,23.821 z"
       id="path7" />
    <path
       fill="#203756"
       d="m 613.086,519.814 c -9.535,-17.289 9.207,-24.813 20.981,-31.103 2.816,-1.425 6.847,-5.675 9.892,-6.28 6.159,-1.222 11.422,-1.794 17.508,-3.743 0.199,0.092 0.396,0.187 0.595,0.277 8.683,3.928 37.152,6.75 48.216,8.785 19.634,3.612 38.643,8.929 57.867,14.218 9.422,2.591 20.285,4.716 29.052,9.071 1.608,0.799 3.327,1.832 3.903,3.632 0.384,1.203 -0.17,2.5 -0.845,3.492 -9.916,14.569 -64.466,37.274 -82.37,40.019 -6.535,1.003 -12.217,0.756 -17.753,-3.283 -7.111,-5.188 -13.712,-10.367 -21.324,-14.884 -7.8,-4.628 -16.094,-8.383 -23.888,-12.998 -5.241,-3.104 -10.523,-7.801 -16.257,-9.828 -4.843,-1.712 -11.381,-1.897 -16.435,-1.147 -3.571,0.53 -6.319,1.515 -9.142,3.772 z"
       id="path8" />
    <path
       fill="#203756"
       d="m 363.117,480.694 2.221,0.497 c 6.188,4.049 37.31,21.926 43.119,19.33 1.062,3.185 1.803,13.533 0.703,16.043 -5.575,-1.305 -15.918,0.471 -21.259,2.73 -7.618,10.502 -24.106,13.449 -34.867,21.077 -8.006,5.675 -15.141,11.354 -22.878,17.378 -7.863,6.122 -23.567,1.284 -32.131,-1.084 -20.94,-6.45 -40.777,-15.547 -58.96,-27.858 -17.864,-12.095 -11.465,-15.986 5.753,-20.842 31.23,-9.021 62.456,-17.918 94.784,-22.073 6.368,-0.818 18.039,-2.327 23.515,-5.198 z"
       id="path9" />
    <path
       fill="#203756"
       d="m 415.306,492.602 c 3.451,3.166 7.292,6.642 10.303,10.052 5.363,6.128 10.14,13.251 17.686,16.901 5.699,2.757 14.63,6.862 20.868,7.336 13.212,0.875 36.239,-3.45 35.741,16.775 -0.152,6.162 0.094,12.903 -0.166,19.067 -0.393,9.283 3.225,27.001 -4.083,33.906 -10.61,1.166 -15.728,8.093 -21.968,15.723 -1.442,1.762 -4.648,4.435 -5.601,6.046 -2.248,-6.374 -10.677,-24.674 -19.027,-21.769 -8.568,-5.836 -38.226,-8.928 -49.552,-11.149 -4.868,-1.052 -11.392,-1.094 -15.906,-3.11 -7.637,-3.41 -9.598,-10.373 -2.451,-15.752 5.335,-4.015 11.164,-7.81 14.473,-13.557 1.801,-3.128 3.273,-6.412 5.248,-9.432 1.35,-2.06 5.271,-3.965 5.883,-6.637 1.468,-6.405 0.416,-8.915 3.085,-15.38 l 0.005,0.518 0.863,0.282 -0.724,-0.494 1.189,0.329 -0.862,0.168 c 5.681,-1.59 4.466,-23.705 4.996,-29.823 z"
       id="path10" />
    <path
       fill="#203756"
       d="m 365.622,436.213 c -0.485,-8.09 -2.486,-18.017 -3.523,-26.377 15.052,15.547 19.324,20.745 23.914,42.252 0.577,2.705 2.802,11.9 4.136,13.911 6.151,9.274 17.15,18.632 25.157,26.603 -0.53,6.118 0.685,28.233 -4.996,29.823 l 0.862,-0.168 -1.189,-0.329 0.724,0.494 -0.863,-0.282 -0.005,-0.518 c -0.257,-1.682 -0.483,-3.368 -0.679,-5.058 1.1,-2.51 0.359,-12.858 -0.703,-16.043 -5.809,2.596 -36.931,-15.281 -43.119,-19.33 0.069,-8.228 0.088,-15.613 0.913,-23.821 l 0.264,-1.831 c 0.052,-6.956 0.063,-12.374 -0.893,-19.326 z"
       id="path11" />
    <path
       fill="#203756"
       d="m 365.338,481.191 c 0.069,-8.228 0.088,-15.613 0.913,-23.821 1.17,16.263 35.799,27.245 42.206,43.151 -5.809,2.596 -36.931,-15.281 -43.119,-19.33 z"
       id="path12" />
  </g>
</svg>
