<?xml version='1.0' encoding='utf-8'?>
<svg xmlns="http://www.w3.org/2000/svg" viewBox="0 0 24 24" fill="none" version="1.1" id="svg4">
  <g transform="translate(-0.000000,-0.000000)scale(1.090909)"><defs id="defs4" />
  <path d="M 5.5,7 C 6.32843,7 7,6.32843 7,5.5 7,4.67157 6.32843,4 5.5,4 4.67157,4 4,4.67157 4,5.5 4,6.32843 4.67157,7 5.5,7 Z" fill="#0f0f0f" id="path1" />
  <path d="M 4,9 C 4,8.44772 4.44772,8 5,8 h 1 c 0.55228,0 1,0.44771 1,1 v 8 c 0,0.5523 -0.44772,1 -1,1 H 5 C 4.44772,18 4,17.5523 4,17 Z" fill="#0f0f0f" id="path2" />
  <path d="m 10,18 h 1 c 0.5523,0 1,-0.4477 1,-1 V 12.5 C 12,11 15,10 15,12 v 5.0004 C 15,17.5527 15.4477,18 16,18 h 1 c 0.5523,0 1,-0.4477 1,-1 V 11 C 18,9 16.5,8 14.5,8 12.5,8 12,9.5 12,9.5 V 9 C 12,8.44771 11.5523,8 11,8 H 10 C 9.4477,8 9,8.44772 9,9 v 8 c 0,0.5523 0.4477,1 1,1 z" fill="#0f0f0f" id="path3" />
  <path fill-rule="evenodd" clip-rule="evenodd" d="m 19,0 c 1.6569,0 3,1.34315 3,3 v 16 c 0,1.6569 -1.3431,3 -3,3 H 3 C 1.34315,22 0,20.6569 0,19 V 3 C 0,1.34315 1.34315,0 3,0 Z m 0,2 c 0.5523,0 1,0.44772 1,1 v 16 c 0,0.5523 -0.4477,1 -1,1 H 3 C 2.44772,20 2,19.5523 2,19 V 3 C 2,2.44772 2.44772,2 3,2 Z" fill="#0f0f0f" id="path4" />
</g></svg>