<?xml version="1.0" encoding="UTF-8" standalone="no"?>
<svg
   role="img"
   viewBox="0 0 24.000263 14.788923"
   version="1.1"
   id="svg1"
   width="24.000263"
   height="14.788923"
   xmlns="http://www.w3.org/2000/svg"
   xmlns:svg="http://www.w3.org/2000/svg">
  <defs
     id="defs1" />
  <title
     id="title1">NBC</title>
  <path
     d="M 14.828235,2.2628966e-5 C 13.422435,0.00672263 12.261635,1.2083226 12.412235,2.7851226 h 1.08 c 0,0 0.5026,-0.0062 0.6485,0.338 0,0 -1.594,0.6128 -1.4668,1.6093 l 0.9922,7.3281004 3.4727,-8.4316004 c 0.5296,-1.279 -0.0616,-3.16679997 -1.6973,-3.55669997 a 2.5497,2.5497 0 0 0 -0.6133,-0.07220000103 z m -5.6426,0.002000001 a 2.5551,2.5551 0 0 0 -0.627,0.0722 c -1.6356,0.3878 -2.2268,2.27569997 -1.6972,3.55659997 l 3.4727,8.4317004 1.2422,-9.1582004 c 0.2194,-1.629 -0.9564,-2.88759997 -2.3907,-2.90239997 z m -4.8925,3.70289997 c -0.5719,0.0213 -1.1298,0.2465 -1.5586,0.6583 -0.803,0.7737 -1.4275,2.8792 0.371,4.1562 l 6.9532,4.9258004 -3.334,-8.0762004 c -0.4878,-1.1698 -1.4785,-1.6994 -2.4316,-1.664 z m 15.2715,0 c -0.9075,0.0203 -1.8246,0.5528 -2.2891,1.6641 l -3.332,8.0762004 6.953,-4.9258004 c 1.7987,-1.275 1.172,-3.3825 0.3692,-4.1563 -0.4638,-0.446 -1.0802,-0.672 -1.7011,-0.6582 z m 1.9394,5.7872 c -0.4523,0.0075 -0.9351,0.1573 -1.42,0.502 l -6.7694,4.7948004 h 8.0253 c 1.8734,0 3.0648,-1.5828 2.5332,-3.4843 -0.2595,-0.9264 -1.2131,-1.8318004 -2.369,-1.8125004 z m -19.0078,0.002 c -1.1556,-0.0186 -2.10819997,0.8855004 -2.36909997,1.8105004 -0.5316,1.9015 0.6597,3.4843 2.53319997,3.4843 h 8.0253 l -6.7695,-4.7948004 c -0.4848,-0.344 -0.9677,-0.4927 -1.42,-0.5 z"
     id="path1" />
</svg>
