<?xml version="1.0" encoding="UTF-8" standalone="no"?>
<svg
   role="img"
   viewBox="0 0 24 15.226882"
   version="1.1"
   id="svg1"
   width="24"
   height="15.226882"
   xmlns="http://www.w3.org/2000/svg"
   xmlns:svg="http://www.w3.org/2000/svg">
  <defs
     id="defs1" />
  <title
     id="title1">Wikipedia</title>
  <path
     d="m 12.09,8.7315556 c -0.936,1.9320004 -2.217,4.5480004 -2.853,5.7280004 -0.616,1.074 -1.127,0.931 -1.532,0.029 -1.406,-3.321 -4.293,-9.1440004 -5.651,-12.4090004 -0.251,-0.601 -0.441,-0.987 -0.619,-1.13900004 -0.181,-0.15 -0.554,-0.24 -1.122,-0.271 -0.21,-0.024 -0.313,-0.075 -0.313,-0.159 v -0.455 l 0.052,-0.045 c 0.924,-0.005 5.401,0 5.401,0 l 0.051,0.045 v 0.434 c 0,0.119 -0.075,0.176 -0.225,0.176 l -0.564,0.031 c -0.485,0.029 -0.727,0.164 -0.727,0.43600004 0,0.135 0.053,0.33 0.166,0.601 1.082,2.646 4.818,10.5210004 4.818,10.5210004 l 0.136,0.046 2.411,-4.8100004 -0.482,-1.067 -1.658,-3.264 c 0,0 -0.318,-0.654 -0.428,-0.872 C 8.223,0.84455556 8.239,0.76955556 7.504,0.67055556 c -0.207,-0.023 -0.313,-0.05 -0.313,-0.149 v -0.468 l 0.06,-0.045 h 4.292 l 0.113,0.037 v 0.451 c 0,0.105 -0.076,0.15 -0.227,0.15 l -0.308,0.047 c -0.792,0.061 -0.661,0.38100004 -0.136,1.42200004 l 1.582,3.252 1.758,-3.504 c 0.293,-0.64 0.233,-0.801 0.111,-0.94700004 -0.07,-0.084 -0.305,-0.22 -0.812,-0.24 l -0.201,-0.021 c -0.052,0 -0.098,-0.015 -0.145,-0.051 -0.045,-0.031 -0.067,-0.076 -0.067,-0.129 v -0.427 l 0.061,-0.045 c 1.247,-0.008 4.043,0 4.043,0 l 0.059,0.045 v 0.436 c 0,0.121 -0.059,0.178 -0.193,0.178 -0.646,0.03 -0.782,0.095 -1.023,0.43900004 -0.12,0.186 -0.375,0.589 -0.646,1.039 l -2.301,4.273 -0.065,0.135 2.792,5.7120004 0.17,0.048 4.396,-10.4380004 c 0.154,-0.422 0.129,-0.722 -0.064,-0.89500004 -0.197,-0.172 -0.346,-0.273 -0.857,-0.295 l -0.42,-0.016 c -0.061,0 -0.105,-0.014 -0.152,-0.045 -0.043,-0.029 -0.072,-0.075 -0.072,-0.119 v -0.436 l 0.059,-0.045 h 4.961 l 0.041,0.045 v 0.437 c 0,0.119 -0.074,0.18 -0.209,0.18 -0.648,0.03 -1.127,0.18 -1.443,0.42100004 -0.314,0.255 -0.557,0.616 -0.736,1.067 0,0 -4.043,9.2580004 -5.426,12.3390004 -0.525,1.007 -1.053,0.917 -1.503,-0.031 -0.571,-1.171 -1.773,-3.786 -2.646,-5.7100004 z"
     id="path1" />
</svg>
