<?xml version="1.0" encoding="UTF-8" standalone="no"?>
<svg
   viewBox="0 0 16.419546 16.41954"
   version="1.1"
   id="svg3"
   width="16.419546"
   height="16.41954"
   xmlns="http://www.w3.org/2000/svg"
   xmlns:svg="http://www.w3.org/2000/svg">
  <defs
     id="defs3" />
  <g
     transform="matrix(0.222222,0,0,0.222222,-1.3274542,-4.447853)"
     id="g3">
    <path
       d="M 37.9911,20.3497 C 58.251,17.6234 76.8729,31.8701 79.5413,52.1377 82.2097,72.4053 67.9099,90.9864 47.6348,93.5969 27.4414,96.1969 8.95144,81.9673 6.29377,61.7814 3.63609,41.5955 17.8129,23.065 37.9911,20.3497 Z M 38.548,47.5711 C 38.491,46.133 38.29,43.0379 38.4381,41.7325 l -5.6904,0.0078 c 0.0285,6.6188 -1.9999,17.6557 3.0697,22.4843 4.6252,4.4053 10.0881,3.4981 14.6332,-0.54 3.9848,-4.3474 4.0592,-9.6447 -0.277,-13.8744 -3.1685,-3.0909 -7.519,-2.8294 -11.6256,-2.2391 z M 23.7776,66.786 c 2.3028,-0.1029 5.4683,0.0956 7.781,0.4028 -0.1682,-9.3965 1.0633,-21.5036 -12.3073,-20.1055 -9.0162,2.5155 -10.94714,13.2705 -3.1407,18.6075 1.9184,1.3115 5.3946,1.2907 7.667,1.0952 z m 48.1609,-8.247 c -2.346,0.0328 -2.7965,0.792 -4.9936,1.9351 -5.6402,2.9343 -8.1804,-2.0601 -5.3965,-6.4688 0.4308,-0.6823 2.0423,-1.2611 2.9529,-1.5764 2.5886,0.8402 3.1602,1.1867 5.1425,3.0507 l 5.4819,0.0218 c -2.0332,-4.7431 -5.0688,-8.9643 -10.8351,-8.6804 -5.9686,0.964 -10.6254,5.4366 -9.554,11.7863 0.4689,2.7197 1.9857,5.1472 4.2246,6.7609 5.2018,3.6925 11.2902,1.5272 14.5845,-3.4835 0.6111,-0.9294 1.4544,-1.9674 1.114,-3.1406 -0.5951,-0.4057 -1.8602,-0.2204 -2.7212,-0.2051 z"
       id="path1" />
    <path
       d="m 41.9635,52.6466 c 2.3868,-0.5269 4.753,0.9652 5.3062,3.346 0.5532,2.3808 -0.9127,4.7634 -3.2873,5.3428 -1.5595,0.3806 -3.2033,-0.1062 -4.304,-1.2747 -1.1008,-1.1684 -1.4888,-2.8383 -1.016,-4.3723 0.4728,-1.5341 1.7335,-2.6958 3.3011,-3.0418 z"
       id="path2" />
    <path
       d="m 20.6663,52.6265 c 2.4309,-0.3201 4.6633,1.3848 4.9944,3.8143 0.3311,2.4294 -1.3637,4.6696 -3.7916,5.0116 -2.4435,0.3443 -4.7012,-1.3638 -5.0344,-3.8088 -0.3332,-2.445 1.385,-4.695 3.8316,-5.0171 z"
       id="path3" />
  </g>
</svg>
